<?xml version="1.0" standalone="no"?>
<!DOCTYPE svg PUBLIC "-//W3C//DTD SVG 20010904//EN"
 "http://www.w3.org/TR/2001/REC-SVG-20010904/DTD/svg10.dtd">
<svg version="1.0" xmlns="http://www.w3.org/2000/svg"
 width="700.000000pt" height="700.000000pt" viewBox="0 0 700.000000 700.000000"
 preserveAspectRatio="xMidYMid meet">
<metadata>
Created by potrace 1.14, written by Peter Selinger 2001-2017
</metadata>
<g transform="translate(0.000000,700.000000) scale(0.100000,-0.100000)"
fill="#000000" stroke="none">
<path d="M3569 6870 c-146 -47 -233 -113 -311 -235 -17 -27 -33 -51 -34 -53
-1 -2 -24 11 -50 28 -64 40 -138 61 -219 61 -231 0 -414 -169 -440 -405 -1
-12 -3 -22 -4 -24 0 -1 -18 8 -38 21 -217 133 -487 102 -669 -78 -185 -182
-217 -457 -78 -677 l24 -38 -27 -1 c-60 -1 -135 -25 -194 -60 -128 -75 -210
-213 -218 -365 -2 -48 22 -167 38 -189 26 -35 20 -44 -37 -55 -98 -20 -199
-75 -273 -149 -104 -105 -156 -220 -163 -356 -7 -154 44 -292 150 -405 215
-227 568 -229 788 -4 49 51 109 148 121 197 4 15 10 27 14 27 3 0 33 -12 66
-26 l61 -27 1 -397 c1 -426 3 -448 51 -492 73 -66 163 -94 335 -103 108 -6
148 -13 229 -40 88 -30 163 -75 239 -144 98 -88 124 -134 134 -242 6 -60 32
-114 72 -150 15 -14 79 -63 141 -108 l112 -83 0 -216 0 -217 -85 -130 c-137
-209 -129 -168 -135 -660 -5 -405 -6 -422 -28 -473 -20 -48 -42 -85 -82 -135
-8 -10 -108 -93 -222 -185 -114 -91 -206 -167 -204 -169 2 -2 113 10 247 26
134 17 269 33 299 37 30 3 91 12 135 19 76 13 328 14 385 2 24 -5 74 -11 185
-22 56 -6 137 -15 175 -20 23 -3 49 -6 190 -21 25 -3 61 -7 80 -9 91 -12 155
-17 150 -12 -3 3 -101 102 -219 220 l-213 215 0 461 0 461 230 115 c127 64
238 123 247 131 12 13 15 47 15 198 0 164 -2 185 -18 199 -23 21 -56 22 -76 1
-13 -13 -16 -43 -16 -173 l0 -157 -137 -69 c-76 -38 -163 -81 -193 -95 l-55
-27 2 441 c2 485 4 499 61 575 43 56 53 64 122 98 54 26 57 26 295 28 254 3
263 4 321 31 85 40 239 214 271 305 12 33 24 50 39 53 12 3 97 57 190 119 152
102 169 116 172 144 4 40 -28 66 -64 53 -13 -5 -87 -52 -166 -105 l-143 -95
-3 331 c-1 183 -1 334 1 336 2 2 28 -8 58 -21 124 -57 297 -74 424 -41 277 71
481 316 501 599 15 216 -94 445 -271 572 -72 51 -179 100 -241 110 l-40 6 0
106 c1 135 -18 193 -98 295 -38 48 -130 110 -195 132 -49 16 -49 16 -40 48 13
46 11 134 -5 193 -67 253 -346 396 -579 298 -95 -39 -90 -40 -116 15 -42 89
-143 174 -262 219 -20 8 -28 20 -34 48 -22 119 -150 281 -271 342 -125 63
-286 80 -405 42z m395 -3090 c11 -60 70 -160 128 -219 117 -121 263 -178 426
-168 94 7 195 38 254 78 14 11 29 19 32 19 10 0 6 -233 -5 -273 -13 -48 -67
-109 -117 -133 -30 -14 -66 -18 -195 -19 l-159 -1 29 20 c51 38 183 177 183
195 0 24 -21 48 -48 56 -19 6 -37 -7 -110 -77 -48 -46 -97 -89 -110 -96 -20
-11 -101 -41 -127 -47 -26 -6 -45 -18 -50 -34 -4 -14 -17 -17 -74 -16 -39 0
-73 4 -77 7 -6 7 -7 169 -5 616 1 125 11 162 25 92z m-1361 -224 c40 -19 100
-40 135 -47 126 -24 288 4 382 68 19 12 39 23 45 23 5 0 59 -123 118 -273 95
-239 108 -278 105 -322 l-3 -50 -67 3 c-126 4 -229 61 -274 149 -60 120 -191
206 -384 251 -98 24 -148 31 -207 32 l-43 0 0 158 0 158 61 -58 c37 -35 88
-71 132 -92z"/>
</g>
</svg>
