<svg xmlns="http://www.w3.org/2000/svg" viewBox="0 0 64 64">
    <path d="M27.48 38.34A6.331 6.331 0 0 0 23 36c-3 0-4-1-4-2v-7.13a3.679 3.679 0 0 0 2.01-.02c0 .05-.01.1-.01.15a4.941 4.941 0 0 0 1 3v3s5 0 6 3a3.415 3.415 0 0 0 2.41 1H31v5.99c-.79-.62-1.51-1.16-2.06-1.52a2.081 2.081 0 0 1-.94-1.74 2.067 2.067 0 0 0-.52-1.39Z" fill="#845335"/>
    <path d="m41 63-8.25-.92a6.839 6.839 0 0 0-1.5.01L24 63l3.5-2.8a4 4 0 0 0 1.5-3.12V52l8 7Zm-4-13v5c0-3-6-7-6-8v-4.01c2.63 2.06 6 5.01 6 5.01Z" fill="#a56645"/>
    <path d="M37 55v4l-8-7v-.79a3.993 3.993 0 0 1 .67-2.22L31 47c0 1 6 5 6 8Zm0-10v3s-3.37-2.95-6-5.01V39s6 3 6 6Z" fill="#af7a58"/>
    <path d="M38 36h4a2.006 2.006 0 0 0 2-2v-2a5.01 5.01 0 0 0 2-4 5.9 5.9 0 0 0-.06-.59 5.314 5.314 0 0 0 1.06.77V35c0 1.33-1.33 2.67-2.22 3.41a2.6 2.6 0 0 1-1.67.59h-3.33A2.787 2.787 0 0 0 37 41.78V45c0-3-6-6-6-6v-3l-2-5v-.01a5.163 5.163 0 0 0 1.52-1.88A3.934 3.934 0 0 0 33 30a3.991 3.991 0 0 0 3.06-1.45c.02.16.04.31.07.46H36V36h2Z" fill="#a56645"/>
    <path d="M30.41 37A3.415 3.415 0 0 1 28 36c-1-3-6-3-6-3v-3a4.941 4.941 0 0 1-1-3c0-.05.01-.1.01-.15a3.679 3.679 0 0 1-2.01.02V30a2 2 0 0 1 2 2v1.083a1 1 0 0 0 .9.994c1.3.129 3.6.422 4.1.923l2.121 2.121A3 3 0 0 1 29 39.243v2.268c.542.359 1.237.88 2 1.479V37ZM37 37h5a3 3 0 0 0 3-3v-.558a2 2 0 0 1 1.368-1.9l.632-.209V28.18a5.314 5.314 0 0 1-1.06-.77A5.9 5.9 0 0 1 46 28a5.01 5.01 0 0 1-2 4v2a2.006 2.006 0 0 1-2 2h-6a1 1 0 0 0 1 1Z" fill="#5e3117"/>
    <path d="M32 54.721v-.1L29 52v5.08a4 4 0 0 1-1.5 3.12L24 63l7.25-.91a6.839 6.839 0 0 1 1.5-.01L41 63l-4-4-1.784-.357A4 4 0 0 1 32 54.721Zm1.091-5.357.237-.356A4 4 0 0 0 34 46.789v-1.354a120.935 120.935 0 0 0-3-2.445V47c0 .4.949 1.271 2.091 2.364Z" fill="#6f3529"/>
    <path d="M32 52.211a4 4 0 0 1 .672-2.219l.419-.628C31.949 48.271 31 47.4 31 47l-1.33 1.99a3.993 3.993 0 0 0-.67 2.22V52l3 2.625Zm2-11.336A22.163 22.163 0 0 0 31 39v3.99c.968.758 2.036 1.637 3 2.445Z" fill="#92563a"/>
    <path d="M34 36.944a4.012 4.012 0 0 0-.422-1.789l-.329-.657a2 2 0 0 1 1.372-2.849c.512-.114.987-.239 1.379-.348V29.01h.13c-.03-.15-.05-.3-.07-.46A3.991 3.991 0 0 1 33 30a3.934 3.934 0 0 1-2.48-.89A5.163 5.163 0 0 1 29 30.99V31l2 5v3a22.163 22.163 0 0 1 3 1.875ZM38 36h1.487a2.351 2.351 0 0 0 .626-.406l1.241-1.24a.5.5 0 0 0-.708-.708l-1.24 1.241a4.594 4.594 0 0 1-1.486.613.5.5 0 0 0-.5.5H38Z" fill="#5e3117"/>
    <path d="M50.416 32.723a.5.5 0 0 0-.693-.139L47 34.4v.6a2.184 2.184 0 0 1-.06.5H47a.5.5 0 0 0 .277-.084l3-2a.5.5 0 0 0 .139-.693Z" fill="#a56645"/>
    <path d="M37 48.5v-1.207l-.024.023c-.936-.811-3.553-3.064-5.668-4.719a.5.5 0 0 0-.212-.1l-.1-.019v1.147c2.539 2.01 5.639 4.72 5.671 4.748A.5.5 0 0 0 37 48.5Zm-4.522.969C34.08 51 36.5 53.312 36.5 55a.5.5 0 0 0 .243.429l.257.154v-2.355a19.428 19.428 0 0 0-3.832-4.482A12.644 12.644 0 0 1 31.5 47a.5.5 0 0 0-.342-.474L31 46.473V47l-.336.5a10.843 10.843 0 0 0 1.814 1.969ZM37 59v-.664l-7.671-6.712a.489.489 0 0 0-.231-.114l-.1-.02v1.175l7.671 6.711A.5.5 0 0 0 37 59.5a.48.48 0 0 0 .158-.026l.242-.074Z" fill="#93b861"/>
    <path d="M37 50.5a.5.5 0 0 0 .224-.053l4-2A.5.5 0 0 0 41.5 48v-3a.5.5 0 0 0-1 0v2.691l-3.5 1.75V50.5Z" fill="#a56645"/>
    <path d="M31.158 38.526 31 38.473v1.09c1.72.9 5.5 3.327 5.5 5.437a.5.5 0 0 0 .4.49l.1.02v-2.2c-1.445-2.561-5.576-4.656-5.842-4.784Z" fill="#93b861"/>
    <path d="m31.1 42.5-.1-.019v1.147c.987.781 2.057 1.667 3 2.461v-1.3a113.38 113.38 0 0 0-2.692-2.187.5.5 0 0 0-.208-.102Zm.4 4.5a.5.5 0 0 0-.342-.474L31 46.473V47l-.336.5a10.843 10.843 0 0 0 1.814 1.966l.331.318.282-.423.237-.356c.015-.023.025-.048.04-.071l-.2-.191A12.644 12.644 0 0 1 31.5 47Zm.5 7.625v-.664l-2.671-2.337a.489.489 0 0 0-.231-.114l-.1-.02v1.175l3.054 2.672a4.053 4.053 0 0 1-.052-.616ZM37 59l-.984-.2.655.573A.5.5 0 0 0 37 59.5a.48.48 0 0 0 .158-.026l.242-.074Zm-6-20.527v1.09a20.558 20.558 0 0 1 3 1.945v-1.244a21.821 21.821 0 0 0-2.842-1.738Z" fill="#6c9137"/>
</svg>
